# xmcd
#
# Track frame offsets: 
#        150
#        10530
#        21650
#        31342
#        42087
#        55890
#        66352
#        77270
#        88737
#        99132
#        110365
#        119700
#
# Disc length: 1751 seconds
#
# Revision: 1
# Processed by: cddbd v1.5.2PL0 Copyright (c) Steve Scherf et al.
# Submitted via: ExactAudioCopy v1.1
#
DISCID=8f06d50c
DTITLE=Paul Anka - I Grandi Successi Originali cd1
DYEAR=1900
DGENRE=Oldies
TTITLE0=Diana
TTITLE1=Sei nel mio destino
TTITLE2=Ogni giorno
TTITLE3=Piangerò per te
TTITLE4=Estate senza te
TTITLE5=Dimmi se il tuo compleanno
TTITLE6=Ogni volta
TTITLE7=Voglio sapere
TTITLE8=Cercavo proprio te
TTITLE9=Per carità
TTITLE10=Cinderella
TTITLE11=Abbandonati, amore
EXTD=
EXTT0=
EXTT1=
EXTT2=
EXTT3=
EXTT4=
EXTT5=
EXTT6=
EXTT7=
EXTT8=
EXTT9=
EXTT10=
EXTT11=
PLAYORDER=
